# xmcd
#
# Track frame offsets: 
#        150
#        14892
#        30291
#        45867
#        58564
#        78399
#        92801
#        111147
#        124433
#        146462
#
# Disc length: 2188 seconds
#
# Revision: 0
# Processed by: cddbd v1.5.2PL0 Copyright (c) Steve Scherf et al.
# Submitted via: ExactAudioCopy v1.1
#
DISCID=7d088a0a
DTITLE=Marjo Leinonen Huff 'n' Puff - Marjo Leinonen Huff 'n' Puff
DYEAR=2012
DGENRE=Blues
TTITLE0=Drunken Junco
TTITLE1=Flash of Heavenly Hope
TTITLE2=Loudmouth
TTITLE3=Huff 'n' Puff
TTITLE4=Young Man
TTITLE5=Thy Mighty Will
TTITLE6=Bless My Shoes
TTITLE7=I Borrowed Your Car
TTITLE8=Flowers on the Top
TTITLE9=Palace of the King
EXTD=
EXTT0=
EXTT1=
EXTT2=
EXTT3=
EXTT4=
EXTT5=
EXTT6=
EXTT7=
EXTT8=
EXTT9=
PLAYORDER=
